<?xml version="1.0" encoding="utf-8"?>
<!-- Generator: Adobe Illustrator 27.3.1, SVG Export Plug-In . SVG Version: 6.00 Build 0)  -->
<svg version="1.1" id="Calque_1" xmlns="http://www.w3.org/2000/svg" xmlns:xlink="http://www.w3.org/1999/xlink" x="0px" y="0px"
	 viewBox="0 0 1920 1080" style="enable-background:new 0 0 1920 1080;" xml:space="preserve">
<style type="text/css">
	.st0{fill:none;}
	.st1{fill:#00933A;}
</style>
<g>
	<path class="st0" d="M876.49,902.46c12.33,5.91,22.94,12.25,31.86,19.1l1.56-93.49c-23.62,22.81-46.95,42.58-70.01,59.27
		C851.95,891.54,864.16,896.58,876.49,902.46z"/>
	<path class="st0" d="M811.6,780.45c-21.5,14.63-44.59,29.18-69.25,43.63c-24.66,14.45-49.32,27.92-73.97,40.48
		c56.12,0.77,107.8,6.86,154.99,18.26c31.46-16.72,60.32-37.26,86.54-61.58V697.49c-9.45,12.18-22.82,25.37-40.15,39.61
		C852.47,751.37,833.1,765.82,811.6,780.45z"/>
	<path class="st0" d="M1701.36,384.83v-65.82h28.18v-12.46h-25.06v-45.38h23.5V247.6h-25.06v-53.32
		c51.68-15.89,43.83-49.89,7.85-82.78c-32.78-29.95-46.03-78.59-48.15-87.05c-2.12,8.47-15.37,57.1-48.15,87.05
		c-35.99,32.89-43.83,66.9,7.85,82.78v53.32h-25.06v13.58h23.5v45.35h-25.06v12.46h28.18v65.82l-36.79,26.63V511
		c59.96,19.94,111.08,41.64,151.15,67.88V411.38L1701.36,384.83z"/>
	<path class="st0" d="M618.82,871.95c-16.81,0.77-33.98,2.38-51.52,4.83c-17.57,2.48-34.91,5.6-51.92,9.41
		c-17.05,3.81-33.42,7.91-49.16,12.25c-15.73,4.37-30.18,8.85-43.27,13.4c5.76,2.27,13.77,4.65,24.02,7.14
		c10.25,2.48,19.25,5.25,27.14,8.26c25.18-9.13,50.08-18.05,74.73-26.8C573.43,891.72,596.77,882.23,618.82,871.95z"/>
	<path class="st0" d="M608.18,893.36c-15.49,7.03-30.3,13.3-44.43,18.82c-14.17,5.53-27.3,10.08-39.35,13.68
		c-12.09,3.6-22.3,5.98-30.7,7.14c53.48,12.53,107.92,14.63,163.28,6.26c55.32-8.36,107.12-25.09,155.39-50.17
		c-50.36-11.79-103.07-17.67-158.15-17.67C639,879.02,623.67,886.33,608.18,893.36z"/>
	<path d="M909.95,676.99c-13.13,14.07-29.9,29.29-50.36,45.59c-20.45,16.34-43.15,32.79-68.05,49.34
		c-24.9,16.55-51.16,32.79-78.7,48.74c-27.54,15.96-54.68,30.79-81.42,44.47c-17.29,0.77-35.43,2.38-54.28,4.86
		c-18.89,2.48-37.75,5.7-56.64,9.69c-18.89,3.99-37.27,8.54-55.08,13.68c-17.85,5.14-34.1,10.36-48.8,15.68
		c-23.1-8.36-47.07-17.11-72.01-26.21c-24.9-9.13-49.56-17-73.97-23.65c-24.38-6.65-47.87-11.02-70.41-13.12
		c-22.58-2.06-43.03-0.66-61.36,4.27L83,879.96c20.98-4.93,42.47-6.54,64.53-4.86c22.02,1.71,44.71,5.42,68.05,11.13
		s47.31,12.84,71.97,21.38c24.66,8.54,50.08,17,76.33,25.37c-25.7,15.96-46.67,35.16-62.93,57.59c-7.89,14.45-9.05,26.24-3.56,35.34
		c5.52,9.13,14.81,16.27,27.94,21.38c13.09,5.14,28.58,8.54,46.43,10.25c17.81,1.71,34.87,2.38,51.16,1.99
		c28.86-0.38,68.33-4.93,118.4-13.68s107.92-19.77,173.48-33.07c-59.8,9.87-113.44,18.89-160.92,27.08
		c-47.47,8.15-91.43,13.02-131.81,14.56c-9.45,0.38-22.02-0.1-37.75-1.43c-15.73-1.33-30.58-4.2-44.47-8.54
		c-13.89-4.37-24.54-10.74-31.86-19.1c-7.37-8.36-7.37-19.59,0-33.62c6.8-10.64,15.21-20.71,25.18-30.23
		c9.97-9.48,22.02-18.44,36.19-26.8c34.1,11.02,69.37,20.71,105.84,29.08c36.47,8.36,73.97,12.35,112.52,11.97
		s78.02-6.65,118.4-18.82c40.39-12.14,81.82-33.24,124.33-63.3c5.76,1.15,13.25,3.32,22.42,6.54c9.17,3.22,17.97,6.65,26.34,10.25
		c8.41,3.6,15.73,7.42,22.02,11.41s9.69,7.52,10.25,10.53c-7.85,12.53-13.77,21.66-17.69,27.36c-3.92,5.7-7.89,9.9-11.81,12.53
		c-3.92,2.66-8.53,4.55-13.77,5.7c-5.24,1.15-12.89,3.6-22.82,7.42c28.82-5.32,51.4-11.2,67.65-17.67
		c16.25-6.47,28.58-16.06,36.99-28.8c8.37-12.74,13.61-30.23,15.73-52.45c2.08-22.25,3.16-51.61,3.16-88.07V586.85l-59,78.69v11.44
		H909.95z M474.04,927.27c-7.89-3.04-16.93-5.77-27.14-8.26c-10.25-2.48-18.21-4.83-24.02-7.14c13.09-4.55,27.54-9.03,43.27-13.4
		c15.73-4.37,32.14-8.47,49.16-12.25c17.05-3.81,34.34-6.93,51.92-9.41c17.57-2.45,34.74-4.06,51.52-4.83
		c-22.02,10.25-45.39,19.77-70.01,28.52C524.12,909.21,499.22,918.13,474.04,927.27z M656.97,939.23
		c-55.36,8.36-109.76,6.26-163.28-6.26c8.41-1.15,18.61-3.5,30.7-7.14c12.05-3.6,25.18-8.15,39.35-13.68
		c14.17-5.49,28.98-11.79,44.43-18.82c15.49-7.03,30.82-14.35,46.03-21.94c55.08,0,107.8,5.91,158.15,17.67
		C764.09,914.14,712.29,930.87,656.97,939.23z M908.35,921.56c-8.93-6.86-19.53-13.19-31.86-19.1
		c-12.33-5.88-24.54-10.92-36.59-15.12c23.06-16.72,46.43-36.49,70.01-59.27L908.35,921.56z M909.95,821.21
		c-26.26,24.32-55.08,44.86-86.54,61.58c-47.19-11.41-98.87-17.49-154.99-18.26c24.66-12.53,49.28-26.03,73.97-40.48
		c24.66-14.45,47.75-28.97,69.25-43.63c21.5-14.63,40.91-29.08,58.2-43.32c17.29-14.24,30.66-27.47,40.15-39.61v123.72H909.95z"/>
	<path d="M1257.56,1006.83c0.08-0.35,0.2-0.7,0.28-1.05c0-0.45-0.04-0.87-0.04-1.33L1257.56,1006.83z"/>
	<path d="M1306.88,1017.33c-0.36,15.08,3.56-14.98,8.17-39.78C1317.25,934.3,1307.28,1000.53,1306.88,1017.33z"/>
	<path d="M1372.49,1026.6c-7.37,4.2-15.33,7.8-24.02,10.85c-8.65,3.04-16.37,3.6-23.22,1.71c-2.64-0.77-5-6.09-7.09-15.96
		c-2.12-9.9-4.56-22.81-3.56-38.77c0.16-2.55,0.28-4.79,0.4-6.86c-4.6,24.81-8.53,54.86-8.17,39.78
		c0.4-16.83,10.37-83.03,8.17-39.78c1.56-8.43,3.24-16.27,4.84-21.52c6.28-20.71,15.05-40.94,26.34-60.71
		c11.29-19.77,25.82-37.26,43.67-52.45c-6.8,3.04-16.77,7.03-29.9,11.97c-13.13,4.93-27.94,10.53-44.47,16.83
		c-16.53,6.26-34.22,13.19-53.12,20.82c-18.89,7.59-37.51,15.4-55.88,23.37c0.52-15.96,0.8-27.96,0.8-35.93s0-14.07,0-18.23
		s0.12-7.31,0.4-9.41c0.28-2.06,0.64-5.21,1.2-9.41l-139.26,60.43l1.56-61.02l-65.33,42.76v43.32c0,5.7-1.04,11.41-3.16,17.11
		c-2.12,5.32-5.24,10.92-9.45,16.83c-4.2,5.88-10.77,11.86-19.65,17.95c31.98-23.55,62.68-43.7,92.07-60.43
		c29.38-16.72,55.88-28.31,79.46-34.78c0,39.54-0.8,71.45-2.36,95.77c4.2-6.47,13.53-14.73,27.94-24.81s31.06-20.15,49.96-30.23
		s38.27-19.28,58.24-27.64c19.93-8.36,37.23-14.07,51.92-17.11c-12.61,8.36-24.02,20.43-34.22,36.21
		c-10.21,15.78-19.13,33.17-26.74,52.17c-4.76,11.86-8.73,24-12.05,36.35c0.6,14.31,2.68,27.01,6.44,37.89
		c4.44,12.91,11.65,21.48,21.62,25.65c8.93,3.81,17.81,4.65,26.74,2.55c8.93-2.1,17.93-6.19,27.14-12.25
		c9.17-6.09,18.61-13.61,28.34-22.53c9.69-8.92,20.05-18.54,31.06-28.8C1390.3,1015.58,1381.37,1021.63,1372.49,1026.6z"/>
	<path d="M1697.12,957.78c-14.45,0.56-28.46-0.77-42.11-3.99s-25.98-8.26-36.99-15.12c-11.01-6.86-19.69-15.19-25.98-25.09
		l-58.24,27.36v9.13c-4.2,0-9.85,0.1-16.89,0.28c-7.09,0.21-14.29,0.1-21.66-0.28s-14.29-1.15-20.85-2.27
		c-6.56-1.15-10.89-2.87-12.97-5.14c-3.68-3.43-5.64-7.31-5.88-11.69c-0.28-4.37,0.52-8.64,2.36-12.84s4.32-8.19,7.49-11.97
		c3.16-3.78,6.56-7.21,10.25-10.25c4.2-1.12,8.65-2.38,13.37-3.71c4.72-1.33,9.45-2.38,14.17-3.15c5.76,4.2,11.41,7.14,16.89,8.82
		c5.52,1.71,12.73,4.09,21.66,7.14l59.8-28.52c-5.76-1.89-10.77-3.43-14.97-4.55c-4.2-1.15-8.13-2.45-11.81-3.99
		c-3.68-1.5-7.21-3.32-10.61-5.42c-3.44-2.06-7.49-5.21-12.21-9.41c-4.2-3.81-9.85-6.65-16.89-8.54
		c-7.09-1.89-14.69-2.94-22.82-3.15c-8.13-0.17-16.13,0.38-24.02,1.71c-7.85,1.33-14.41,3.15-19.65,5.42
		c-7.37,3.04-14.57,6.37-21.66,9.97c-7.09,3.6-14.29,7.14-21.66,10.53c8.93-2.66,16.53-4.55,22.82-5.7s11.93-1.22,16.93-0.28
		c4.96,0.94,9.69,2.87,14.17,5.7c4.44,2.87,9.29,6.93,14.57,12.25l-56.64,26.8c-6.28,3.04-12.61,6.93-18.89,11.69
		c-6.28,4.76-11.41,9.97-15.33,15.68c-3.92,5.7-6.16,11.58-6.68,17.67c-0.52,6.09,1.84,11.79,7.09,17.11
		c5.76,5.7,12.85,8.54,21.26,8.54s16.77,0.21,25.18,0.56c11.53,0.38,23.62,0.49,36.19,0.28c12.57-0.17,23.86-2.55,33.82-7.14
		l29.9-13.68c7.85,6.47,17.29,12.07,28.34,16.83c11.01,4.76,22.42,8.19,34.22,10.25c11.81,2.06,23.86,2.66,36.19,1.71
		c12.33-0.94,23.74-3.71,34.22-8.26c9.93-4.55,19.65-9.13,29.1-13.68c9.45-4.55,19.13-9.13,29.1-13.68l-1.56-2.27
		C1725.54,954.45,1711.53,957.18,1697.12,957.78z"/>
	<path class="st1" d="M1710.77,111.49c35.99,32.89,43.83,66.9-7.85,82.78v53.32h25.06v13.58h-23.5v45.35h25.06v12.46h-28.18v65.82
		l36.79,26.63v167.49c13.57,8.89,25.78,18.33,36.79,28.34V409.7l-51.64-36.25v-44.23h29.74v-36.28h-28.18v-14.77h31.3V238.5h-32.86
		v-30.62c0,0,81.38-24.95,43.79-74.84c-37.23-49.47-88.22-74.46-104.39-109.1c-0.04,0.14-0.08,0.35-0.12,0.49
		C1664.73,32.9,1677.98,81.54,1710.77,111.49z"/>
	<path class="st1" d="M1662.25,23c0,0,0.08,0.35,0.24,0.91c0.04-0.07,0.08-0.17,0.12-0.24C1662.49,23.45,1662.33,23.24,1662.25,23z"
		/>
	<path class="st1" d="M1587.04,411.45l36.79-26.63v-65.82h-28.18v-12.46h25.06v-45.38h-23.5V247.6h25.06v-53.32
		c-51.68-15.89-43.83-49.89-7.85-82.78c32.78-29.95,46.03-78.59,48.15-87.05c-0.04-0.17-0.08-0.38-0.12-0.49
		c-16.13,34.67-67.17,59.62-104.39,109.1c-37.59,49.93,43.79,74.84,43.79,74.84v30.62h-32.86v39.68h31.3v14.77h-28.18v36.28h29.74
		v44.26l-51.64,36.25v89.57c12.61,3.85,24.86,7.77,36.79,11.72v-99.58H1587.04z"/>
	<path class="st1" d="M1662.93,23c-0.12,0.24-0.24,0.45-0.36,0.66c0.04,0.07,0.08,0.17,0.12,0.24
		C1662.85,23.38,1662.93,23,1662.93,23z"/>
	<path class="st1" d="M1662.73,23.94c-0.04-0.07-0.08-0.17-0.12-0.24c-0.04,0.07-0.08,0.17-0.12,0.24c0.04,0.14,0.08,0.35,0.12,0.49
		C1662.65,24.26,1662.69,24.05,1662.73,23.94z"/>
	<path class="st1" d="M338.86,802.77c1.24,15.57,5.28,24.7,5.28,24.7C342.03,818.97,340.34,810.79,338.86,802.77z"/>
	<path class="st1" d="M1085.92,261.07c-0.04-0.31-0.04-0.45-0.04-0.45s-51.04,129.43-336.84,203.39
		c-275,71.17-447.44,134.78-410.17,338.77c-4.24-52.59,23.38-178.87,346.33-275.89c372.51-111.9,399.33-235.55,400.73-261.37
		C1085.8,263.27,1085.88,261.77,1085.92,261.07z"/>
	<path class="st1" d="M1774.93,607.29v38.38l-36.79-40.83v-25.89c-40.07-26.24-91.19-47.94-151.15-67.88v21.17h-36.79v-32.89
		c-39.39-12-81.98-23.58-127.41-35.34c-285.85-73.93-336.88-203.39-336.88-203.39s-0.04,0.17-0.04,0.45c0.04,0.7,0.12,2.2,0,4.41
		c1.4,25.82,28.22,149.47,400.73,261.37c323.03,97.06,350.57,223.34,346.33,275.93C1848.83,716,1826.73,654.63,1774.93,607.29z"/>
	<path class="st1" d="M1832.98,802.81c-1.48,8.01-3.16,16.2-5.28,24.67C1827.69,827.48,1831.73,818.34,1832.98,802.81z"/>
	<path class="st1" d="M1738.19,578.95v25.89l36.79,40.83v-38.38C1763.97,597.25,1751.72,587.83,1738.19,578.95z"/>
	<path class="st1" d="M1587.04,532.24v-21.17c-11.93-3.95-24.18-7.87-36.79-11.72v32.89L1587.04,532.24L1587.04,532.24z"/>
	<path class="st1" d="M1085.92,261.07c-0.04,0.7-0.12,2.2,0,4.41C1086.04,263.27,1085.96,261.77,1085.92,261.07z"/>
</g>
</svg>
